<svg width="206px" height="44px" viewBox="0 0 206 44" version="1.1" xmlns="http://www.w3.org/2000/svg" xmlns:xlink="http://www.w3.org/1999/xlink">
    <g id="Page-1" stroke="none" stroke-width="1" fill="none" fill-rule="evenodd">
        <g id="00_D_Baseline" transform="translate(-249.000000, -226.000000)" fill="#FFFFFF">
            <g id="Podcast-1" transform="translate(247.000000, 171.000000)">
                <g id="business">
                    <g id="wave" transform="translate(-2.000000, 55.000000)">
                        <g id="bars" transform="translate(113.000000, 22.000000) scale(-1, 1) translate(-113.000000, -22.000000) ">
                            <rect id="Rectangle" x="110" y="12" width="2" height="32"></rect>
                            <rect id="Rectangle-Copy" x="106" y="15" width="2" height="29"></rect>
                            <rect id="Rectangle-Copy-6" x="90" y="15" width="2" height="29"></rect>
                            <rect id="Rectangle-Copy-2" x="102" y="17" width="2" height="27"></rect>
                            <rect id="Rectangle-Copy-7" x="86" y="17" width="2" height="27"></rect>
                            <rect id="Rectangle-Copy-3" x="98" y="36" width="2" height="8"></rect>
                            <rect id="Rectangle-Copy-4" x="94" y="37" width="2" height="7"></rect>
                            <rect id="Rectangle" x="82" y="24" width="2" height="20"></rect>
                            <rect id="Rectangle-Copy" x="78" y="26" width="2" height="18"></rect>
                            <rect id="Rectangle-Copy-6" x="62" y="26" width="2" height="18"></rect>
                            <rect id="Rectangle-Copy-2" x="74" y="27" width="2" height="17"></rect>
                            <rect id="Rectangle-Copy-7" x="58" y="27" width="2" height="17"></rect>
                            <rect id="Rectangle-Copy-3" x="70" y="39" width="2" height="5"></rect>
                            <rect id="Rectangle-Copy-4" x="66" y="40" width="2" height="4"></rect>
                            <rect id="Rectangle" x="28" y="0" width="2" height="44"></rect>
                            <rect id="Rectangle-Copy" x="32" y="4" width="2" height="40"></rect>
                            <rect id="Rectangle-Copy-6" x="48" y="4" width="2" height="40"></rect>
                            <rect id="Rectangle-Copy-2" x="36" y="7" width="2" height="37"></rect>
                            <rect id="Rectangle-Copy-7" x="52" y="7" width="2" height="37"></rect>
                            <rect id="Rectangle-Copy-3" x="40" y="33" width="2" height="11"></rect>
                            <rect id="Rectangle-Copy-4" x="44" y="35" width="2" height="9"></rect>
                            <rect id="Rectangle-Copy-6" x="20" y="15" width="2" height="29"></rect>
                            <rect id="Rectangle-Copy-7" x="24" y="22" width="2" height="22"></rect>
                            <rect id="Rectangle-Copy-4" x="16" y="35" width="2" height="9"></rect>
                            <rect id="Rectangle-Copy" x="220" y="15" width="2" height="29"></rect>
                            <rect id="Rectangle-Copy-6" x="204" y="15" width="2" height="29"></rect>
                            <rect id="Rectangle-Copy-2" x="216" y="17" width="2" height="27"></rect>
                            <rect id="Rectangle-Copy-7" x="200" y="17" width="2" height="27"></rect>
                            <rect id="Rectangle-Copy-3" x="212" y="36" width="2" height="8"></rect>
                            <rect id="Rectangle-Copy-4" x="208" y="37" width="2" height="7"></rect>
                            <rect id="Rectangle" x="196" y="24" width="2" height="20"></rect>
                            <rect id="Rectangle-Copy" x="192" y="26" width="2" height="18"></rect>
                            <rect id="Rectangle-Copy-6" x="176" y="26" width="2" height="18"></rect>
                            <rect id="Rectangle-Copy-2" x="188" y="27" width="2" height="17"></rect>
                            <rect id="Rectangle-Copy-7" x="172" y="27" width="2" height="17"></rect>
                            <rect id="Rectangle-Copy-3" x="184" y="39" width="2" height="5"></rect>
                            <rect id="Rectangle-Copy-4" x="180" y="40" width="2" height="4"></rect>
                            <rect id="Rectangle" x="142" y="0" width="2" height="44"></rect>
                            <rect id="Rectangle-Copy" x="146" y="4" width="2" height="40"></rect>
                            <rect id="Rectangle-Copy-6" x="162" y="4" width="2" height="40"></rect>
                            <rect id="Rectangle-Copy-2" x="150" y="7" width="2" height="37"></rect>
                            <rect id="Rectangle-Copy-7" x="166" y="7" width="2" height="37"></rect>
                            <rect id="Rectangle-Copy-3" x="154" y="33" width="2" height="11"></rect>
                            <rect id="Rectangle-Copy-4" x="158" y="35" width="2" height="9"></rect>
                            <rect id="Rectangle" x="114" y="27" width="2" height="17"></rect>
                            <rect id="Rectangle-Copy" x="118" y="33" width="2" height="11"></rect>
                            <rect id="Rectangle-Copy-6" x="134" y="15" width="2" height="29"></rect>
                            <rect id="Rectangle-Copy-2" x="122" y="32" width="2" height="12"></rect>
                            <rect id="Rectangle-Copy-7" x="138" y="22" width="2" height="22"></rect>
                            <rect id="Rectangle-Copy-3" x="126" y="37" width="2" height="7"></rect>
                            <rect id="Rectangle-Copy-4" x="130" y="35" width="2" height="9"></rect>
                        </g>
                    </g>
                </g>
            </g>
        </g>
    </g>
</svg>